PathFileType	4	(X/Y/Z)	C:/Users/opensim2020/Desktop/walking_exp_matlab/subject03_walking05_straight_02.trc																																																																																																																																					
DataRate	CameraRate	NumFrames	NumMarkers	Units	OrigDataRate	OrigDataStartFrame	OrigNumFrames																																																																																																																																	
100	100	8	45	mm	100	1571	252																																																																																																																																	
Frame#	Time	LFHD			RFHD			LBHD			RBHD			C7			T10			CLAV			STRN			RBAK			LSHO			LUPA			LELB			LFRM			LWRA			LWRB			LFIN			RSHO			RUPA			RELB			RFRM			RWRA			RWRB			RFIN			LASI			RASI			LPSI			RPSI			LTHI			LKNE			LTIB			LANK			LHEE			LTOE			RTHI			RKNE			RTIB			RANK			RHEE			RTOE			*39			*40			*41			*42			*43			*44		
		X1	Y1	Z1	X2	Y2	Z2	X3	Y3	Z3	X4	Y4	Z4	X5	Y5	Z5	X6	Y6	Z6	X7	Y7	Z7	X8	Y8	Z8	X9	Y9	Z9	X10	Y10	Z10	X11	Y11	Z11	X12	Y12	Z12	X13	Y13	Z13	X14	Y14	Z14	X15	Y15	Z15	X16	Y16	Z16	X17	Y17	Z17	X18	Y18	Z18	X19	Y19	Z19	X20	Y20	Z20	X21	Y21	Z21	X22	Y22	Z22	X23	Y23	Z23	X24	Y24	Z24	X25	Y25	Z25	X26	Y26	Z26	X27	Y27	Z27	X28	Y28	Z28	X29	Y29	Z29	X30	Y30	Z30	X31	Y31	Z31	X32	Y32	Z32	X33	Y33	Z33	X34	Y34	Z34	X35	Y35	Z35	X36	Y36	Z36	X37	Y37	Z37	X38	Y38	Z38	X39	Y39	Z39	X40	Y40	Z40	X41	Y41	Z41	X42	Y42	Z42	X43	Y43	Z43	X44	Y44	Z44	X45	Y45	Z45
																																																																																																																																								
95	0.94	-360.80966	1605.93323	-1498.62292	-380.10721	1614.3147	-1366.99756	-488.01767	1560.21436	-1509.70947	-501.91901	1568.52612	-1379.89722	-525.66742	1405.54028	-1449.80957	-559.69794	1091.11182	-1442.59424	-404.9111	1327.15576	-1437.51855	-362.72009	1162.67346	-1441.97668	-588.82959	1229.11829	-1359.85535	-436.41156	1365.84216	-1595.10486	-394.06378	1182.85413	-1671.73816	-338.64569	1075.22791	-1682.14929	-240.6709	996.52911	-1660.35571	-155.55794	928.84662	-1606.8562	-165.97145	910.80066	-1658.07092	-96.8117	871.27991	-1635.15186	-467.67035	1351.37915	-1282.42371	-492.1088	1129.98804	-1210.27454	-488.05289	1017.35626	-1194.28345	-487.11664	880.23242	-1188.52112	-464.82443	780.90314	-1219.42297	-500.67798	780.80823	-1178.07678	-485.65384	707.08118	-1185.88074	-391.56796	930.60345	-1562.17737	-387.65027	929.72443	-1322.01099	-552.80042	950.43488	-1504.797	-550.00934	952.14606	-1356.2948	-485.87561	635.00336	-1591.51038	-522.48956	459.7142	-1553.4552	-630.00482	290.78195	-1554.57104	-717.50208	98.32336	-1513.76392	-768.55371	75.38873	-1479.6449	-580.20282	33.76892	-1478.52502	-390.03506	634.79657	-1273.99561	-315.02042	470.51999	-1311.71631	-298.6741	286.34357	-1304.61145	-243.20695	74.46482	-1344.13489	-274.17566	36.09362	-1400.27832	-96.65565	61.18483	-1357.89392	NaN	NaN	NaN	NaN	NaN	NaN	NaN	NaN	NaN	NaN	NaN	NaN	NaN	NaN	NaN	NaN	NaN	NaN
96	0.95	-350.71173	1606.07361	-1497.46362	-369.84204	1614.18701	-1365.67834	-477.89041	1560.2312	-1507.96338	-491.75305	1568.49719	-1378.46033	-515.63043	1405.46106	-1448.52844	-548.94293	1090.87695	-1441.59875	-394.54495	1327.14343	-1436.38892	-352.16995	1162.64795	-1441.01611	-578.19293	1228.76904	-1358.45044	-426.58789	1365.9176	-1593.96594	-385.57663	1182.33044	-1670.52795	-331.04175	1074.2865	-1680.78296	-233.30769	995.8963	-1658.99023	-147.76866	928.65106	-1605.20166	-158.43864	910.0885	-1656.18921	-89.1815	871.0177	-1633.19958	-457.263	1351.33582	-1281.21912	-481.603	1129.76355	-1209.41248	-477.70154	1017.09753	-1193.6322	-477.04504	879.96411	-1188.09131	-454.3952	780.80261	-1218.85669	-490.8288	780.53552	-1177.75024	-476.08786	706.60645	-1185.78491	-381.11737	930.16376	-1561.22156	-376.70795	929.77374	-1321.02673	-542.13708	950.38348	-1503.61975	-539.17499	952.5072	-1355.24536	-476.31784	634.73096	-1590.97913	-513.59381	459.48013	-1553.67065	-624.09613	292.09491	-1554.79077	-715.90308	101.70793	-1514.24792	-766.97717	79.74603	-1480.12891	-580.30414	33.59514	-1478.75708	-379.1615	635.27704	-1274.00525	-306.29797	469.94791	-1311.8905	-293.33939	284.80386	-1305.17505	-242.55484	72.15296	-1345.43604	-274.47546	33.57194	-1401.53467	-96.41711	55.24214	-1360.09705	NaN	NaN	NaN	NaN	NaN	NaN	NaN	NaN	NaN	NaN	NaN	NaN	NaN	NaN	NaN	NaN	NaN	NaN
97	0.96	-340.67902	1606.18372	-1496.10522	-359.54816	1614.16406	-1364.33459	-467.88635	1560.41711	-1506.6084	-481.47104	1568.3999	-1376.77466	-505.41666	1405.31897	-1447.02771	-538.01898	1090.70923	-1440.59253	-384.03268	1327.19836	-1435.18396	-341.2829	1162.87854	-1439.96155	-567.44525	1228.43701	-1357.02271	-416.61954	1366.03296	-1592.72485	-377.14575	1181.77429	-1669.16003	-323.73141	1073.2926	-1679.39343	-225.92276	994.91626	-1657.48059	-140.52109	927.86823	-1603.59485	-151.3735	908.90582	-1654.36829	-82.02094	870.07556	-1631.3728	-446.6152	1351.32043	-1279.88208	-470.91187	1129.64148	-1208.48779	-467.07855	1016.85687	-1193.07068	-466.64233	879.78149	-1187.64453	-444.0668	780.56964	-1218.48267	-480.67221	780.33649	-1177.4552	-466.23831	706.32196	-1185.77319	-370.32153	929.78882	-1560.34924	-365.64771	929.96515	-1320.00867	-531.42426	950.41394	-1502.56238	-528.29163	952.9624	-1354.15564	-466.35596	634.42969	-1590.47009	-503.98862	459.06848	-1553.90967	-617.79041	293.46188	-1555.04736	-713.81445	105.39585	-1515.09729	-765.29852	84.75054	-1480.7998	-580.04761	33.46254	-1478.73792	-368.08768	635.91949	-1273.94897	-297.82861	469.32388	-1312.00183	-288.49371	283.34631	-1305.99048	-240.66296	70.76086	-1346.36499	-273.93237	33.96801	-1402.29822	-95.17514	47.20827	-1362.47839	NaN	NaN	NaN	NaN	NaN	NaN	NaN	NaN	NaN	NaN	NaN	NaN	NaN	NaN	NaN	NaN	NaN	NaN
98	0.97	-330.58035	1606.56689	-1494.85254	-349.3204	1614.53906	-1362.95776	-457.88922	1560.82507	-1505.55359	-471.19638	1568.68408	-1375.54834	-495.28021	1405.47021	-1445.54919	-526.91125	1090.7406	-1439.53735	-373.60376	1327.49463	-1433.91052	-330.63669	1163.37	-1438.8645	-556.74005	1228.34717	-1355.69189	-406.60257	1366.2688	-1591.50366	-368.72446	1181.24792	-1667.74182	-316.52264	1072.23706	-1678	-219.11423	993.52472	-1656.07617	-133.5296	926.6322	-1602.19861	-144.69119	907.37976	-1652.79004	-75.29469	868.53455	-1629.69592	-435.95526	1351.40662	-1278.46631	-460.12155	1129.5564	-1207.48328	-456.33603	1016.76532	-1192.24731	-455.93597	879.62549	-1187.23352	-433.98453	780.34302	-1218.34729	-470.11169	780.1908	-1177.22473	-455.81036	706.09247	-1185.75061	-359.33893	929.53918	-1559.39294	-354.58875	930.36389	-1319.03333	-520.69922	950.45416	-1501.58472	-517.27032	953.57672	-1353.06494	-456.00101	634.10651	-1589.9762	-493.9198	458.65848	-1554.23926	-610.9256	294.94891	-1555.31958	-711.02948	109.26235	-1515.7981	-762.99121	90.14674	-1481.67896	-579.61322	33.27859	-1478.59155	-357.09659	637.46277	-1274.11145	-290.48776	469.19879	-1312.14832	-283.20828	282.99255	-1306.68359	-235.52301	71.19447	-1346.3844	-271.59976	35.71225	-1401.2373	-90.76749	43.57568	-1364.67615	NaN	NaN	NaN	NaN	NaN	NaN	NaN	NaN	NaN	NaN	NaN	NaN	NaN	NaN	NaN	NaN	NaN	NaN
99	0.98	-320.41003	1607.55774	-1493.70837	-338.82861	1615.3197	-1361.70776	-447.43179	1561.51733	-1503.95654	-460.63953	1569.18518	-1373.75269	-485.09808	1406.04004	-1443.99109	-515.92029	1091.18982	-1438.51147	-363.24496	1328.35034	-1432.65588	-319.95468	1164.39856	-1437.77795	-546.0993	1228.59326	-1354.39087	-396.5538	1366.69153	-1590.30627	-360.21481	1180.82324	-1666.23633	-309.41852	1071.18237	-1676.62268	-212.51823	991.99121	-1654.73743	-127.05402	924.93433	-1600.89563	-138.45078	905.51569	-1651.38147	-69.25854	866.41614	-1628.25403	-425.30145	1351.74622	-1276.95813	-449.12674	1129.64868	-1206.3894	-445.33212	1016.77185	-1191.41602	-445.12915	879.62689	-1186.68274	-422.75793	780.51208	-1217.99817	-459.36102	780.16211	-1176.85449	-445.19284	706.25055	-1185.75134	-348.26031	929.43463	-1558.50598	-343.46774	931.11786	-1318.00708	-509.71753	950.57715	-1500.62134	-506.10309	954.44745	-1352.07092	-445.18997	633.87891	-1589.48303	-482.94186	458.21387	-1554.56458	-603.31311	296.61526	-1555.57776	-707.43207	113.43738	-1516.18213	-759.86151	95.90648	-1482.04541	-579.25916	33.12014	-1478.51147	-346.37115	639.22766	-1274.13037	-283.94714	469.46344	-1312.06458	-276.41211	283.63525	-1306.15869	-231.26813	71.10125	-1346.64954	-269.15125	37.31539	-1400.92358	-86.66095	41.79933	-1363.61572	NaN	NaN	NaN	NaN	NaN	NaN	NaN	NaN	NaN	NaN	NaN	NaN	NaN	NaN	NaN	NaN	NaN	NaN
100	0.99	-310.23465	1608.52783	-1492.46606	-328.336	1616.32947	-1360.48401	-437.23642	1562.56848	-1502.51257	-450.26984	1570.37036	-1372.55115	-474.61688	1406.86987	-1442.22083	-504.98019	1091.95251	-1437.81641	-352.85706	1329.40503	-1431.31006	-309.20831	1165.3822	-1436.50415	-535.49164	1229.2489	-1352.90186	-386.3746	1367.41016	-1589.09924	-351.8602	1180.66235	-1664.64014	-302.38303	1070.27698	-1675.26074	-206.10352	990.32086	-1653.38953	-120.96925	922.78406	-1599.69373	-133.01532	903.13373	-1650.00073	-63.79758	863.55737	-1626.91589	-414.63895	1352.31042	-1275.40405	-437.9389	1129.98291	-1205.3512	-433.90314	1017.01746	-1190.62744	-433.76422	879.82867	-1186.26074	-411.73383	780.70288	-1217.9884	-447.88437	780.36096	-1176.72412	-434.00266	706.36578	-1185.67188	-336.79709	929.82599	-1557.44531	-332.31705	932.29919	-1316.91309	-498.60355	950.8371	-1499.73169	-494.99106	955.78076	-1351.20789	-433.76892	633.72937	-1588.96741	-471.1564	457.89847	-1555.03845	-595.02106	298.5126	-1555.82397	-703.46985	117.8834	-1516.32434	-756.30884	102.53784	-1482.34485	-578.67487	33.22432	-1478.65283	-336.3895	640.85895	-1274.19189	-276.78009	470.02274	-1311.57483	-268.888	284.33917	-1305.08801	-228.30774	71.01739	-1347.0614	-267.46146	38.39251	-1400.92676	-84.27987	39.96393	-1361.41663	NaN	NaN	NaN	NaN	NaN	NaN	NaN	NaN	NaN	NaN	NaN	NaN	NaN	NaN	NaN	NaN	NaN	NaN
101	1	-300.01169	1609.6405	-1491.33789	-317.78326	1617.50842	-1359.29663	-426.95081	1563.70117	-1500.70996	-439.7641	1571.56213	-1370.823	-464.04562	1408.06519	-1440.58057	-494.1051	1092.89197	-1437.18347	-342.4357	1330.64368	-1429.95544	-298.47931	1166.74805	-1435.28381	-524.74982	1230.10217	-1351.19031	-376.20087	1368.33997	-1587.88843	-343.44424	1180.79492	-1663.02612	-295.5061	1069.69312	-1673.68457	-200.02213	988.54651	-1652.07361	-115.41276	920.21912	-1598.59009	-127.92682	900.52252	-1648.86731	-59.19104	860.31555	-1625.8999	-403.80002	1353.20203	-1273.91138	-426.52652	1130.61926	-1204.23096	-422.34335	1017.62109	-1189.76379	-422.0795	880.38318	-1185.81836	-400.07056	781.36969	-1217.77307	-436.18741	780.85266	-1176.53528	-422.41586	706.95483	-1185.6759	-325.57523	930.10352	-1556.40637	-321.16751	933.98706	-1315.8479	-487.42877	951.27661	-1499.01794	-484.08276	957.40839	-1350.55493	-421.71191	633.66974	-1588.60754	-458.32474	457.48633	-1555.77087	-585.87915	300.61499	-1556.1106	-698.87341	123.29089	-1516.5238	-751.86566	109.86922	-1482.21313	-578.15991	33.10238	-1478.33264	-327.33463	642.30682	-1273.80627	-268.7666	470.91119	-1311.50513	-262.19479	284.89838	-1304.48181	-226.41728	71.06757	-1347.85168	-266.96649	38.71757	-1401.24133	-83.07478	38.78496	-1361.18091	NaN	NaN	NaN	NaN	NaN	NaN	NaN	NaN	NaN	NaN	NaN	NaN	NaN	NaN	NaN	NaN	NaN	NaN
102	1.01	-289.77319	1610.79639	-1490.16113	-307.14566	1618.72144	-1358.14746	-417.14871	1565.03638	-1499.73572	-429.241	1572.95483	-1369.57288	-453.56223	1409.44495	-1438.96802	-483.46469	1094.03296	-1436.52734	-331.94803	1331.98425	-1428.6936	-287.87979	1168.14478	-1434.09058	-514.08344	1231.16785	-1349.44775	-365.97812	1369.54614	-1586.58801	-335.07196	1181.26892	-1661.33899	-288.72412	1069.42432	-1671.94458	-194.09668	986.76654	-1650.79907	-110.42735	917.26862	-1597.72852	-123.51495	897.59711	-1647.87708	-55.20458	856.45563	-1625.14502	-393.05862	1354.30383	-1272.4895	-414.89703	1131.49707	-1203.22449	-410.45596	1018.4245	-1189.09656	-410.08231	881.185	-1185.44543	-388.06552	782.29633	-1217.67737	-424.16623	781.68451	-1176.1687	-410.41086	707.79517	-1185.74695	-314.36557	930.71851	-1555.20215	-310.14102	936.05719	-1314.77075	-476.28531	951.82214	-1498.3501	-473.26218	959.21509	-1349.94324	-408.99207	633.54248	-1588.30237	-444.73502	457.06482	-1557.09631	-575.78351	302.88928	-1556.48303	-693.52728	129.20352	-1516.45532	-746.37653	117.97375	-1481.78052	-577.45734	33.12743	-1478.10498	-318.65939	643.73132	-1273.20264	-260.10635	472.10089	-1311.49463	-256.42654	285.4621	-1304.3811	-225.39636	71.15779	-1348.50146	-266.76291	38.81254	-1401.41687	-82.23637	38.2706	-1363.13293	NaN	NaN	NaN	NaN	NaN	NaN	NaN	NaN	NaN	NaN	NaN	NaN	NaN	NaN	NaN	NaN	NaN	NaN
